<?xml version="1.0" encoding="UTF-8" standalone="no"?>
<!-- Created with Inkscape (http://www.inkscape.org/) -->

<svg
   version="1.1"
   id="svg1"
   width="307.15298"
   height="330.71439"
   viewBox="0 0 307.15298 330.71438"
   xmlns="http://www.w3.org/2000/svg"
   xmlns:svg="http://www.w3.org/2000/svg">
  <defs
     id="defs1">
    <clipPath
       clipPathUnits="userSpaceOnUse"
       id="clipPath12344-1">
      <path
         d="M 0,0.001 H 840.89 V 595.276 H 0 Z"
         transform="translate(-253.89601,-293.45951)"
         id="path12344-3" />
    </clipPath>
    <clipPath
       clipPathUnits="userSpaceOnUse"
       id="clipPath12346-8">
      <path
         d="M 0,0.001 H 840.89 V 595.276 H 0 Z"
         transform="translate(-222.70801,-286.2095)"
         id="path12346-7" />
    </clipPath>
    <clipPath
       clipPathUnits="userSpaceOnUse"
       id="clipPath12348-4">
      <path
         d="M 0,0.001 H 840.89 V 595.276 H 0 Z"
         transform="translate(-88.836002,-236.93411)"
         id="path12348-2" />
    </clipPath>
    <clipPath
       clipPathUnits="userSpaceOnUse"
       id="clipPath12350-7">
      <path
         d="M 0,0.001 H 840.89 V 595.276 H 0 Z"
         transform="translate(-163.14375,-219.39011)"
         id="path12350-7" />
    </clipPath>
    <clipPath
       clipPathUnits="userSpaceOnUse"
       id="clipPath12352-9">
      <path
         d="M 0,0.001 H 840.89 V 595.276 H 0 Z"
         transform="translate(-176.217,-219.39011)"
         id="path12352-3" />
    </clipPath>
    <clipPath
       clipPathUnits="userSpaceOnUse"
       id="clipPath12354-1">
      <path
         d="M 0,0.001 H 840.89 V 595.276 H 0 Z"
         transform="translate(-227.64676,-216.1889)"
         id="path12354-9" />
    </clipPath>
    <clipPath
       clipPathUnits="userSpaceOnUse"
       id="clipPath12356-8">
      <path
         d="M 0,0.001 H 840.89 V 595.276 H 0 Z"
         transform="translate(-276.53851,-201.38041)"
         id="path12356-6" />
    </clipPath>
    <clipPath
       clipPathUnits="userSpaceOnUse"
       id="clipPath12358-5">
      <path
         d="M 0,0.001 H 840.89 V 595.276 H 0 Z"
         transform="translate(-82.164752,-168.1147)"
         id="path12358-0" />
    </clipPath>
    <clipPath
       clipPathUnits="userSpaceOnUse"
       id="clipPath12360-2">
      <path
         d="M 0,0.001 H 840.89 V 595.276 H 0 Z"
         transform="translate(-120.684,-168.1147)"
         id="path12360-8" />
    </clipPath>
    <clipPath
       clipPathUnits="userSpaceOnUse"
       id="clipPath12362-6">
      <path
         d="M 0,0.001 H 840.89 V 595.276 H 0 Z"
         transform="translate(-146.5455,-177.0298)"
         id="path12362-0" />
    </clipPath>
    <clipPath
       clipPathUnits="userSpaceOnUse"
       id="clipPath12364-2">
      <path
         d="M 0,0.001 H 840.89 V 595.276 H 0 Z"
         transform="translate(-154.34775,-161.2378)"
         id="path12364-4" />
    </clipPath>
    <clipPath
       clipPathUnits="userSpaceOnUse"
       id="clipPath12366-8">
      <path
         d="M 0,0.001 H 840.89 V 595.276 H 0 Z"
         transform="translate(-175.72425,-166.89211)"
         id="path12366-6" />
    </clipPath>
    <clipPath
       clipPathUnits="userSpaceOnUse"
       id="clipPath12368-5">
      <path
         d="M 0,0.001 H 840.89 V 595.276 H 0 Z"
         transform="translate(-200.10826,-177.0298)"
         id="path12368-0" />
    </clipPath>
    <clipPath
       clipPathUnits="userSpaceOnUse"
       id="clipPath12370-9">
      <path
         d="M 0,0.001 H 840.89 V 595.276 H 0 Z"
         transform="translate(-221.20351,-174.81391)"
         id="path12370-0" />
    </clipPath>
    <clipPath
       clipPathUnits="userSpaceOnUse"
       id="clipPath12372-0">
      <path
         d="M 0,0.001 H 840.89 V 595.276 H 0 Z"
         transform="translate(-251.39326,-168.1147)"
         id="path12372-6" />
    </clipPath>
    <clipPath
       clipPathUnits="userSpaceOnUse"
       id="clipPath12374-1">
      <path
         d="M 0,0.001 H 840.89 V 595.276 H 0 Z"
         transform="translate(-273.76576,-170.81491)"
         id="path12374-3" />
    </clipPath>
    <clipPath
       clipPathUnits="userSpaceOnUse"
       id="clipPath12376-8">
      <path
         d="M 0,0.001 H 840.89 V 595.276 H 0 Z"
         id="path12376-9" />
    </clipPath>
    <clipPath
       clipPathUnits="userSpaceOnUse"
       id="clipPath12378-3">
      <path
         d="M 0,0.001 H 840.89 V 595.276 H 0 Z"
         transform="translate(-306.96601,-165.69481)"
         id="path12378-4" />
    </clipPath>
  </defs>
  <g
     id="layer-MC0"
     transform="translate(-12733.001,-353)">
    <path
       id="path12343"
       d="m 0,0 c -0.905,4.416 -1.987,8.812 -3.231,13.127 -0.785,2.717 -1.632,5.412 -2.523,8.006 -6.395,18.682 -15.907,36.024 -28.273,51.539 -4.022,5.049 -8.377,9.928 -12.942,14.494 -1.998,2 -4.045,3.951 -6.084,5.802 l -3.514,3.181 -3.511,-3.181 c -2.04,-1.849 -4.087,-3.802 -6.087,-5.804 l -3.885,-3.891 4.081,-3.686 c 1.93,-1.741 3.851,-3.564 5.71,-5.417 4.285,-4.276 8.369,-8.868 12.142,-13.646 9.491,-12.023 17.073,-25.265 22.589,-39.438 -2.792,-0.569 -5.611,-1.066 -8.437,-1.482 -4.687,11.631 -10.868,22.615 -18.413,32.705 -3.972,5.311 -8.351,10.402 -13.018,15.131 -1.977,2.005 -4.037,3.977 -6.118,5.854 l -4.128,3.724 -3.464,-4.349 c -1.763,-2.209 -3.473,-4.466 -5.083,-6.706 -9.916,-13.763 -17.718,-28.848 -23.19,-44.838 -0.892,-2.594 -1.739,-5.287 -2.52,-8.001 -1.248,-4.312 -2.328,-8.708 -3.235,-13.124 -2.679,0.881 -5.344,1.827 -7.976,2.834 0.983,4.645 2.154,9.278 3.5,13.822 0.743,2.516 1.558,5.06 2.421,7.565 5.823,16.891 14.124,32.805 24.673,47.303 1.53,2.107 3.14,4.225 4.79,6.295 3.82,4.798 7.927,9.451 12.207,13.828 1.872,1.922 3.799,3.807 5.728,5.614 3.595,3.37 7.357,6.62 11.224,9.692 3.869,-3.072 7.629,-6.319 11.219,-9.685 1.937,-1.814 3.864,-3.699 5.731,-5.615 4.285,-4.383 8.392,-9.036 12.212,-13.834 C -14.552,61.675 -4.641,43.642 2.058,24.221 2.923,21.708 3.736,19.164 4.476,16.662 5.822,12.112 6.996,7.479 7.979,2.834 5.347,1.827 2.682,0.881 0,0 m 9.49,18.143 c -0.773,2.619 -1.605,5.211 -2.491,7.782 -6.957,20.179 -17.287,38.788 -30.315,55.152 -3.945,4.954 -8.136,9.702 -12.558,14.226 -1.921,1.971 -3.887,3.898 -5.897,5.778 -4.709,4.415 -9.648,8.586 -14.796,12.491 -5.148,-3.905 -10.087,-8.076 -14.795,-12.491 -2.011,-1.88 -3.977,-3.807 -5.899,-5.778 -4.421,-4.524 -8.612,-9.272 -12.557,-14.226 -1.689,-2.12 -3.333,-4.279 -4.928,-6.474 -10.722,-14.74 -19.332,-31.114 -25.387,-48.678 -0.886,-2.571 -1.718,-5.163 -2.492,-7.782 -1.795,-6.067 -3.291,-12.26 -4.465,-18.567 5.862,-2.402 11.873,-4.513 18.016,-6.313 1.057,6.263 2.463,12.408 4.197,18.413 0.753,2.614 1.566,5.2 2.444,7.759 5.363,15.669 12.989,30.294 22.487,43.474 1.59,2.209 3.235,4.377 4.929,6.502 2.021,-1.822 3.989,-3.707 5.898,-5.643 4.507,-4.569 8.703,-9.445 12.552,-14.592 7.995,-10.692 14.5,-22.561 19.209,-35.301 6.387,0.77 12.659,1.914 18.793,3.417 -5.872,16.979 -14.539,32.652 -25.45,46.476 -3.906,4.946 -8.097,9.657 -12.552,14.104 -1.919,1.914 -3.885,3.78 -5.898,5.598 1.919,1.923 3.885,3.8 5.898,5.624 2.013,-1.824 3.979,-3.701 5.899,-5.624 4.441,-4.445 8.632,-9.138 12.551,-14.059 11.81,-14.815 21.154,-31.682 27.416,-49.976 0.878,-2.559 1.691,-5.145 2.444,-7.759 1.734,-6.005 3.14,-12.15 4.196,-18.413 6.144,1.8 12.155,3.911 18.017,6.313 -1.174,6.307 -2.669,12.5 -4.466,18.567"
       style="fill:#ffffff;fill-opacity:1;fill-rule:nonzero;stroke:none"
       transform="matrix(1.3333333,0,0,-1.3333333,12961.975,504.42933)"
       clip-path="url(#clipPath12344-1)" />
    <path
       id="path12345"
       d="m 0,0 c -2.607,-0.369 -5.25,-0.68 -7.857,-0.929 -5.765,-0.556 -11.658,-0.839 -17.522,-0.839 -8.487,0 -17.025,0.594 -25.376,1.768 -4.411,0.617 -8.837,1.406 -13.208,2.358 0.857,4.361 1.908,8.705 3.142,12.96 0.722,2.502 1.522,5.028 2.382,7.514 4.04,11.674 9.48,22.816 16.205,33.201 1.942,-2.22 3.806,-4.507 5.587,-6.852 -5.153,-8.289 -9.467,-17.104 -12.845,-26.244 -0.986,-2.665 -1.909,-5.41 -2.743,-8.161 l -1.788,-5.903 6.118,-0.797 c 7.414,-0.968 14.994,-1.459 22.526,-1.459 4.695,0 9.415,0.192 14.029,0.565 2.816,0.224 5.679,0.525 8.5,0.894 4.748,0.617 9.509,1.445 14.215,2.463 C 12.052,7.83 12.669,5.098 13.208,2.358 8.837,1.406 4.41,0.617 0,0 M 15.088,16.771 C 9.009,15.263 2.797,14.084 -3.527,13.261 c -2.73,-0.356 -5.477,-0.647 -8.246,-0.867 -4.487,-0.365 -9.025,-0.548 -13.606,-0.548 -7.407,0 -14.699,0.481 -21.852,1.415 0.806,2.656 1.687,5.278 2.644,7.864 3.699,10.011 8.507,19.482 14.28,28.269 -3.81,5.319 -8.006,10.344 -12.552,15.035 -8.612,-12.148 -15.562,-25.552 -20.521,-39.887 -0.887,-2.56 -1.71,-5.149 -2.466,-7.771 -1.733,-5.989 -3.124,-12.125 -4.146,-18.384 6.06,-1.492 12.235,-2.688 18.51,-3.567 8.531,-1.197 17.245,-1.816 26.103,-1.816 6.079,0 12.089,0.29 18.019,0.862 2.711,0.259 5.407,0.578 8.084,0.954 6.275,0.879 12.45,2.075 18.51,3.567 -1.022,6.259 -2.413,12.395 -4.146,18.384"
       style="fill:#ffffff;fill-opacity:1;fill-rule:nonzero;stroke:none"
       transform="matrix(1.3333333,0,0,-1.3333333,12920.391,514.096)"
       clip-path="url(#clipPath12346-8)" />
    <path
       id="path12347"
       d="m 0,0 v -16.275 h 23.413 v -5.738 H 0 V -40.891 H -6.671 V 5.803 H 26.282 V 0 Z"
       style="fill:#ffffff;fill-opacity:1;fill-rule:nonzero;stroke:none"
       transform="matrix(1.3333333,0,0,-1.3333333,12741.895,579.79653)"
       clip-path="url(#clipPath12348-4)" />
    <path
       id="path12349"
       d="m 0,0 c 0,10.339 -7.738,17.943 -18.077,17.943 -10.473,0 -18.21,-7.604 -18.21,-17.943 0,-10.339 7.737,-17.942 18.21,-17.942 C -7.738,-17.942 0,-10.339 0,0 m -42.958,0 c 0,13.675 10.54,23.881 24.881,23.881 C -3.87,23.881 6.67,13.741 6.67,0 c 0,-13.741 -10.54,-23.88 -24.747,-23.88 -14.341,0 -24.881,10.206 -24.881,23.88"
       style="fill:#ffffff;fill-opacity:1;fill-rule:nonzero;stroke:none"
       transform="matrix(1.3333333,0,0,-1.3333333,12840.972,603.18853)"
       clip-path="url(#clipPath12350-7)" />
    <path
       id="path12351"
       d="m 0,0 c 0,13.809 10.539,23.881 24.748,23.881 7.203,0 13.474,-2.469 17.743,-7.271 L 38.155,12.407 C 34.553,16.21 30.15,17.943 25.015,17.943 14.475,17.943 6.671,10.339 6.671,0 c 0,-10.339 7.804,-17.942 18.344,-17.942 5.135,0 9.538,1.799 13.14,5.602 l 4.336,-4.202 C 38.222,-21.345 31.951,-23.88 24.681,-23.88 10.539,-23.88 0,-13.808 0,0"
       style="fill:#ffffff;fill-opacity:1;fill-rule:nonzero;stroke:none"
       transform="matrix(1.3333333,0,0,-1.3333333,12858.403,603.18853)"
       clip-path="url(#clipPath12352-9)" />
    <path
       id="path12353"
       d="M 0,0 V 26.548 H 6.671 V 0.268 c 0,-10.34 4.735,-15.01 13.14,-15.01 8.404,0 13.208,4.67 13.208,15.01 v 26.28 h 6.47 V 0 c 0,-13.541 -7.404,-20.679 -19.745,-20.679 C 7.471,-20.679 0,-13.541 0,0"
       style="fill:#ffffff;fill-opacity:1;fill-rule:nonzero;stroke:none"
       transform="matrix(1.3333333,0,0,-1.3333333,12926.976,607.4568)"
       clip-path="url(#clipPath12354-1)" />
    <path
       id="path12355"
       d="M 0,0 2.469,5.203 C 5.937,2.067 11.874,-0.2 17.877,-0.2 c 8.071,0 11.54,3.136 11.54,7.204 0,11.406 -28.283,4.202 -28.283,21.545 0,7.205 5.604,13.343 17.878,13.343 5.468,0 11.139,-1.469 15.008,-4.137 l -2.201,-5.336 c -4.07,2.602 -8.672,3.802 -12.807,3.802 -7.939,0 -11.341,-3.336 -11.341,-7.405 C 7.671,17.41 35.955,24.547 35.955,7.404 35.955,0.268 30.217,-5.87 17.877,-5.87 10.74,-5.87 3.736,-3.469 0,0"
       style="fill:#ffffff;fill-opacity:1;fill-rule:nonzero;stroke:none"
       transform="matrix(1.3333333,0,0,-1.3333333,12992.165,627.20146)"
       clip-path="url(#clipPath12356-8)" />
    <path
       id="path12357"
       d="m 0,0 c 0,5.273 4.024,9.119 9.45,9.119 2.751,0 5.146,-0.942 6.776,-2.777 L 14.57,4.737 C 13.194,6.189 11.513,6.854 9.552,6.854 5.527,6.854 2.546,3.948 2.546,0 c 0,-3.948 2.981,-6.853 7.006,-6.853 1.961,0 3.642,0.689 5.018,2.141 l 1.656,-1.604 C 14.596,-8.15 12.201,-9.119 9.424,-9.119 4.024,-9.119 0,-5.271 0,0"
       style="fill:#ffffff;fill-opacity:1;fill-rule:nonzero;stroke:none"
       transform="matrix(1.3333333,0,0,-1.3333333,12733,671.55573)"
       clip-path="url(#clipPath12358-5)" />
    <path
       id="path12359"
       d="m 0,0 c 0,3.948 -2.955,6.854 -6.902,6.854 -3.999,0 -6.955,-2.906 -6.955,-6.854 0,-3.948 2.956,-6.853 6.955,-6.853 C -2.955,-6.853 0,-3.948 0,0 m -16.404,0 c 0,5.222 4.025,9.119 9.502,9.119 5.425,0 9.449,-3.871 9.449,-9.119 0,-5.247 -4.024,-9.119 -9.449,-9.119 -5.477,0 -9.502,3.896 -9.502,9.119"
       style="fill:#ffffff;fill-opacity:1;fill-rule:nonzero;stroke:none"
       transform="matrix(1.3333333,0,0,-1.3333333,12784.359,671.55573)"
       clip-path="url(#clipPath12360-2)" />
    <path
       id="path12361"
       d="M 0,0 V -17.83 H -2.089 L -12.787,-4.533 V -17.83 h -2.547 V 0 h 2.088 L -2.547,-13.297 V 0 Z"
       style="fill:#ffffff;fill-opacity:1;fill-rule:nonzero;stroke:none"
       transform="matrix(1.3333333,0,0,-1.3333333,12818.841,659.66893)"
       clip-path="url(#clipPath12362-6)" />
    <path
       id="path12363"
       d="m 0,0 0.943,1.986 c 1.324,-1.197 3.591,-2.062 5.883,-2.062 3.083,0 4.407,1.196 4.407,2.75 0,4.356 -10.8,1.604 -10.8,8.227 0,2.751 2.14,5.095 6.827,5.095 2.088,0 4.254,-0.559 5.731,-1.579 L 12.15,12.379 c -1.553,0.993 -3.311,1.452 -4.89,1.452 -3.031,0 -4.331,-1.274 -4.331,-2.828 0,-4.356 10.8,-1.63 10.8,-8.176 0,-2.725 -2.19,-5.069 -6.903,-5.069 C 4.101,-2.242 1.426,-1.325 0,0"
       style="fill:#ffffff;fill-opacity:1;fill-rule:nonzero;stroke:none"
       transform="matrix(1.3333333,0,0,-1.3333333,12829.244,680.72493)"
       clip-path="url(#clipPath12364-2)" />
    <path
       id="path12365"
       d="M 0,0 V 10.138 H 2.547 V 0.103 c 0,-3.95 1.809,-5.733 5.019,-5.733 3.209,0 5.042,1.783 5.042,5.733 v 10.035 h 2.471 V 0 c 0,-5.171 -2.827,-7.896 -7.539,-7.896 C 2.853,-7.896 0,-5.171 0,0"
       style="fill:#ffffff;fill-opacity:1;fill-rule:nonzero;stroke:none"
       transform="matrix(1.3333333,0,0,-1.3333333,12857.746,673.18586)"
       clip-path="url(#clipPath12366-8)" />
    <path
       id="path12367"
       d="m 0,0 h 2.547 v -15.614 h 9.654 V -17.83 H 0 Z"
       style="fill:#ffffff;fill-opacity:1;fill-rule:nonzero;stroke:none"
       transform="matrix(1.3333333,0,0,-1.3333333,12890.258,659.66893)"
       clip-path="url(#clipPath12368-5)" />
    <path
       id="path12369"
       d="M 0,0 H -6.113 V 2.216 H 8.635 V 0 H 2.521 V -15.614 H 0 Z"
       style="fill:#ffffff;fill-opacity:1;fill-rule:nonzero;stroke:none"
       transform="matrix(1.3333333,0,0,-1.3333333,12918.385,662.62346)"
       clip-path="url(#clipPath12370-9)" />
    <path
       id="path12371"
       d="m 0,0 c 0,3.948 -2.954,6.854 -6.902,6.854 -3.999,0 -6.955,-2.906 -6.955,-6.854 0,-3.948 2.956,-6.853 6.955,-6.853 C -2.954,-6.853 0,-3.948 0,0 m -16.403,0 c 0,5.222 4.025,9.119 9.501,9.119 5.425,0 9.449,-3.871 9.449,-9.119 0,-5.247 -4.024,-9.119 -9.449,-9.119 -5.476,0 -9.501,3.896 -9.501,9.119"
       style="fill:#ffffff;fill-opacity:1;fill-rule:nonzero;stroke:none"
       transform="matrix(1.3333333,0,0,-1.3333333,12958.638,671.55573)"
       clip-path="url(#clipPath12372-0)" />
    <path
       id="path12373"
       d="m 0,0 c 0,2.548 -1.707,3.999 -4.967,3.999 h -4.33 v -8.022 h 4.33 C -1.707,-4.023 0,-2.547 0,0 M 0.077,-11.615 -3.77,-6.14 c -0.356,-0.025 -0.738,-0.049 -1.121,-0.049 h -4.406 v -5.426 h -2.547 v 17.83 h 6.953 c 4.636,0 7.438,-2.344 7.438,-6.215 0,-2.751 -1.426,-4.737 -3.922,-5.629 l 4.229,-5.986 z"
       style="fill:#ffffff;fill-opacity:1;fill-rule:nonzero;stroke:none"
       transform="matrix(1.3333333,0,0,-1.3333333,12988.468,667.95546)"
       clip-path="url(#clipPath12374-1)" />
    <path
       id="path12375"
       d="m 284.521,177.03 h 2.547 V 159.2 h -2.547 z"
       style="fill:#ffffff;fill-opacity:1;fill-rule:nonzero;stroke:none"
       transform="matrix(1.3333333,0,0,-1.3333333,12623.447,895.70866)"
       clip-path="url(#clipPath12376-8)" />
    <path
       id="path12377"
       d="M 0,0 -3.846,8.736 -7.693,0 Z m 0.892,-2.037 h -9.477 l -1.96,-4.458 h -2.624 l 8.074,17.83 h 2.522 l 8.1,-17.83 H 2.853 Z"
       style="fill:#ffffff;fill-opacity:1;fill-rule:nonzero;stroke:none"
       transform="matrix(1.3333333,0,0,-1.3333333,13032.735,674.78226)"
       clip-path="url(#clipPath12378-3)" />
  </g>
</svg>
